HIERARCHY
ROOT SimulationBone
{
	OFFSET 0.000000 0.000000 0.000000
	CHANNELS 6 Xposition Yposition Zposition Zrotation Yrotation Xrotation 
	JOINT Hips
	{
		OFFSET 0.000000 0.000000 0.000000
		CHANNELS 6 Xposition Yposition Zposition Zrotation Yrotation Xrotation 
		JOINT RightUpLeg
		{
			OFFSET 0.103458 1.857820 10.548502
			CHANNELS 3 Zrotation Yrotation Xrotation
			JOINT RightLeg
			{
				OFFSET 43.500000 -0.000023 -0.000011
				CHANNELS 3 Zrotation Yrotation Xrotation
				JOINT RightFoot
				{
					OFFSET 42.372192 0.000038 0.000002
					CHANNELS 3 Zrotation Yrotation Xrotation
					JOINT RightToe
					{
						OFFSET 17.299992 -0.000004 0.000006
						CHANNELS 3 Zrotation Yrotation Xrotation
						End Site
						{
							OFFSET 0.000000 0.000000 0.000000
						}
					}
				}
			}
		}
		JOINT LeftUpLeg
		{
			OFFSET 0.103461 1.857814 -10.548508
			CHANNELS 3 Zrotation Yrotation Xrotation
			JOINT LeftLeg
			{
				OFFSET 43.500042 -0.000015 0.000008
				CHANNELS 3 Zrotation Yrotation Xrotation
				JOINT LeftFoot
				{
					OFFSET 42.372253 0.000008 0.000006
					CHANNELS 3 Zrotation Yrotation Xrotation
					JOINT LeftToe
					{
						OFFSET 17.299973 -0.000014 0.000011
						CHANNELS 3 Zrotation Yrotation Xrotation
						End Site
						{
							OFFSET 0.000000 0.000000 0.000000
						}
					}
				}
			}
		}
		JOINT Spine
		{
			OFFSET 6.901966 -2.603737 -0.000007
			CHANNELS 3 Zrotation Yrotation Xrotation
			JOINT Spine1
			{
				OFFSET 12.588102 0.000017 0.000001
				CHANNELS 3 Zrotation Yrotation Xrotation
				JOINT Spine2
				{
					OFFSET 12.343197 -0.000013 0.000000
					CHANNELS 3 Zrotation Yrotation Xrotation
					JOINT Neck
					{
						OFFSET 25.832905 -0.000008 0.000000
						CHANNELS 3 Zrotation Yrotation Xrotation
						JOINT Head
						{
							OFFSET 11.766610 0.000009 -0.000002
							CHANNELS 3 Zrotation Yrotation Xrotation
							End Site
							{
								OFFSET 0.000000 0.000000 0.000000
							}
						}
					}
					JOINT RightShoulder
					{
						OFFSET 19.745903 -1.480377 6.000115
						CHANNELS 3 Zrotation Yrotation Xrotation
						JOINT RightArm
						{
							OFFSET 11.284125 -0.000014 -0.000024
							CHANNELS 3 Zrotation Yrotation Xrotation
							JOINT RightForeArm
							{
								OFFSET 33.000046 -0.000012 0.000029
								CHANNELS 3 Zrotation Yrotation Xrotation
								JOINT RightHand
								{
									OFFSET 25.199989 0.000034 0.000012
									CHANNELS 3 Zrotation Yrotation Xrotation
									End Site
									{
										OFFSET 0.000000 0.000000 0.000000
									}
								}
							}
						}
					}
					JOINT LeftShoulder
					{
						OFFSET 19.746098 -1.480362 -6.000071
						CHANNELS 3 Zrotation Yrotation Xrotation
						JOINT LeftArm
						{
							OFFSET 11.284137 -0.000006 -0.000008
							CHANNELS 3 Zrotation Yrotation Xrotation
							JOINT LeftForeArm
							{
								OFFSET 33.000095 0.000017 0.000000
								CHANNELS 3 Zrotation Yrotation Xrotation
								JOINT LeftHand
								{
									OFFSET 25.199778 0.000144 0.000423
									CHANNELS 3 Zrotation Yrotation Xrotation
									End Site
									{
										OFFSET 0.000000 0.000000 0.000000
									}
								}
							}
						}
					}
				}
			}
		}
	}
}
MOTION
Frames: 9
Frame Time: 0.033333
-180.957341 0.000000 -389.145823 0.000000 -71.369544 0.000000 -0.187710 88.532784 -2.188072 97.757139 -3.862897 173.991956 172.129701 -3.302084 -177.247862 -31.969360 -7.890271 -4.622487 83.359378 2.621792 -3.790706 21.454558 0.003100 0.000017 164.948017 3.968403 -179.035118 -79.996535 -0.255229 0.624440 65.910677 0.845073 3.328393 21.454555 -0.003100 0.000000 10.674512 -1.036681 -0.982559 11.355653 -1.971741 -2.062472 11.037573 -1.984303 -2.050521 0.450446 0.459945 3.128435 -6.975611 -3.062787 4.078437 -164.885998 -69.847120 -16.939926 -22.621378 46.466480 20.464975 -23.340756 -14.339115 1.100503 13.558861 3.664261 24.339661 -166.629035 74.092116 15.164924 -27.677103 -54.868146 -11.797306 -31.398243 15.808558 -1.309374 12.966166 10.933911 -14.173885 
-179.399547 0.000000 -386.052541 0.000000 -73.712223 0.000000 -0.083211 89.081444 -2.031200 97.525297 -3.162383 174.228489 175.969715 -3.569200 -177.634301 -29.695193 -7.838329 -5.760969 84.448377 3.382696 -4.069146 21.454562 0.003102 0.000020 160.484584 3.689109 -177.655707 -78.401556 0.527641 2.386487 64.936548 -0.117025 4.184592 21.454551 -0.003085 0.000000 10.508352 -0.805466 -1.086963 11.019583 -1.503624 -2.245865 10.701633 -1.517288 -2.236768 0.656420 1.301677 3.813043 -6.756403 -4.478881 5.285850 -163.961054 -70.397612 -17.890021 -21.822065 47.617992 21.512955 -25.852013 -15.498425 1.213134 13.490295 2.719779 30.940941 -164.586071 73.862834 17.260679 -22.630970 -55.030974 -16.284542 -30.565161 15.237406 -1.255970 13.389401 9.429992 -10.627774 
-177.954418 0.000000 -382.860498 0.000000 -75.905514 0.000000 -0.074625 89.429710 -1.941232 97.322171 -2.534381 174.443969 179.880654 -3.658901 -179.458344 -27.253689 -7.206700 -6.103228 85.329403 3.600347 -4.186111 21.454558 0.003112 0.000019 156.721067 3.409896 -176.339611 -74.334001 1.235872 2.157541 64.989291 -0.281940 3.418865 21.454553 -0.003085 -0.000011 10.417710 -0.578555 -1.154611 10.833845 -1.046333 -2.358403 10.515979 -1.060690 -2.352055 0.803948 2.333835 4.385584 -6.677309 -5.621216 6.338632 -163.150038 -70.732216 -18.723032 -20.827742 48.108728 22.976669 -29.169812 -16.486029 1.334964 11.702191 1.882067 28.340268 -164.331046 73.495001 17.525026 -17.573716 -54.511371 -20.983495 -29.727271 14.797004 -1.211421 12.995294 7.864789 -10.523707 
-176.628238 0.000000 -379.577266 0.000000 -77.952549 0.000000 -0.190234 89.473198 -1.876167 96.913465 -2.182587 174.904777 -176.678812 -3.515892 178.917570 -24.990781 -6.862386 -6.267735 86.244594 3.736192 -4.140605 21.454563 0.003112 0.000018 153.560493 3.289499 -175.739934 -68.038267 2.421066 1.217166 65.997304 0.076904 2.756561 21.454550 -0.003089 0.000002 10.343282 -0.359900 -1.268819 10.680614 -0.601023 -2.565435 10.362837 -0.616637 -2.561767 0.564469 2.883807 4.819612 -6.372323 -6.267657 7.026611 -163.159053 -70.723713 -18.714005 -19.809994 48.014041 23.624521 -32.985798 -17.212905 1.459524 10.123896 1.519880 20.196777 -163.532952 73.455317 18.344116 -13.771304 -54.025201 -23.784658 -28.755899 13.897373 -1.135476 11.735037 6.560253 -13.468914 
-175.426307 0.000000 -376.207734 0.000000 -79.870356 0.000000 -0.336581 89.242813 -1.809407 96.704311 -2.050419 175.570328 -173.222244 -3.136305 177.490320 -22.919979 -6.617148 -6.316935 87.179073 3.801874 -4.087846 21.454560 0.003108 0.000018 151.720344 3.080703 -176.156917 -59.382744 4.191684 1.716114 66.256025 -0.506324 2.353958 21.454557 -0.003101 0.000001 10.382102 -0.198592 -1.429844 10.754692 -0.263305 -2.871899 10.437023 -0.280779 -2.870260 0.078458 3.428557 5.150606 -5.852133 -6.589138 7.512696 -162.498055 -70.992529 -19.391981 -19.689965 48.096628 23.392430 -36.894554 -18.152066 1.611091 9.725077 1.492185 11.135732 -162.756960 73.387992 19.141732 -11.519487 -53.510202 -25.979091 -27.614289 13.654354 -1.099428 10.571880 4.607200 -19.358819 
-174.347621 0.000000 -372.758679 0.000000 -81.677044 0.000000 -0.500215 88.818771 -1.707513 96.877086 -1.892015 176.321033 -169.460955 -2.760197 176.299449 -20.924223 -6.409290 -6.357055 88.070003 3.832224 -4.207015 21.454562 0.003113 0.000019 151.876633 2.559485 -176.408610 -47.808281 5.228695 3.768503 66.128478 -1.605161 3.501179 21.454551 -0.003100 0.000002 10.595560 -0.073260 -1.576116 11.178224 0.006224 -3.151849 10.860645 -0.012934 -3.151843 -0.504922 4.476385 5.278196 -5.824232 -7.244222 8.007456 -162.027947 -71.318199 -19.873036 -20.473816 48.079607 21.249864 -40.821807 -18.843954 1.758492 9.594123 1.263638 7.005776 -162.895026 72.837083 19.005609 -10.694704 -52.568988 -27.100189 -26.683210 13.630530 -1.081947 10.243555 2.065584 -27.003679 
-173.402672 0.000000 -369.231597 0.000000 -83.385723 0.000000 -0.674954 88.218620 -1.561411 96.925313 -1.773227 177.268249 -165.939883 -2.419205 175.752420 -19.050171 -6.314670 -6.559351 89.086991 3.960656 -4.454830 21.454558 0.003110 0.000018 153.563894 1.574793 -175.674419 -33.226975 4.665686 6.661978 64.329406 -3.138023 4.877253 21.454553 -0.003081 0.000002 10.774566 0.056228 -1.736634 11.532044 0.285422 -3.458889 11.214570 0.264417 -3.460568 -0.371787 4.847393 5.386079 -6.474664 -7.411180 8.271717 -162.728997 -71.578777 -19.147944 -21.531079 47.985030 18.325845 -44.110776 -19.408664 1.889426 9.086234 0.621283 8.286195 -163.097035 72.860114 18.797992 -10.454819 -52.297044 -27.314294 -26.132463 13.472620 -1.062696 10.944743 -0.402572 -34.687228 
-172.588123 0.000000 -365.637981 0.000000 -85.000607 0.000000 -0.915190 87.679237 -1.401404 96.714437 -1.659873 178.411497 -162.508041 -2.095189 175.878396 -16.518884 -6.233861 -7.019718 89.402532 4.262683 -4.618270 21.454558 0.003109 0.000016 156.167918 0.436293 -174.682757 -17.235672 3.524123 8.870635 62.210360 -4.572839 5.172576 21.454553 -0.003095 0.000001 10.873984 0.144545 -1.844642 11.727639 0.475504 -3.665049 11.410223 0.453234 -3.667844 0.176651 5.588497 5.306990 -7.003941 -7.456746 8.354856 -164.451052 -72.237713 -17.370959 -23.119340 47.749344 15.824732 -45.927729 -19.913184 1.977741 8.587424 -0.438742 11.483617 -163.290002 72.536479 18.602616 -10.274486 -52.269221 -27.526540 -26.063129 13.292000 -1.049967 12.614777 -2.352686 -39.155774 
-171.889224 0.000000 -361.991296 0.000000 -86.527438 0.000000 -1.076485 86.900932 -1.277574 96.533572 -1.846100 179.379059 -159.495477 -1.552000 176.007937 -15.037911 -6.187142 -7.341269 89.697794 4.466033 -4.825817 21.454560 0.003110 0.000018 156.585871 -0.533911 -177.514144 -8.192876 2.810050 11.564787 63.851620 -6.454057 5.470463 21.454551 -0.003084 0.000002 10.943991 0.171606 -1.897549 11.866427 0.537134 -3.767393 11.549072 0.514250 -3.770572 0.352311 6.308053 4.926871 -6.424755 -7.969590 8.175993 -166.437981 -72.837615 -15.326053 -25.014972 47.527731 13.714751 -46.550137 -20.349632 2.026086 8.383483 -2.109346 14.567168 -163.271984 72.207606 18.624217 -10.349407 -52.501847 -28.273179 -25.889362 13.410379 -1.054733 13.966177 -3.560079 -40.979544 
